<svg version="1.1" xmlns="http://www.w3.org/2000/svg" xmlns:xlink="http://www.w3.org/1999/xlink" width="800px" height="800px" viewBox="0,0,256,256"><g fill="none" fill-rule="nonzero" stroke="none" stroke-width="none" stroke-linecap="none" stroke-linejoin="none" stroke-miterlimit="10" stroke-dasharray="" stroke-dashoffset="0" font-family="none" font-weight="none" font-size="none" text-anchor="none" style="mix-blend-mode: normal"><g transform="translate(0.00026,0) scale(10.66667,10.66667)"><g id="SVGRepo_bgCarrier" fill="none" stroke-width="0" stroke-linecap="butt" stroke-linejoin="miter" font-family="Inter, apple-system, BlinkMacSystemFont, &quot;Helvetica Neue&quot;, &quot;Segoe UI&quot;, &quot;Fira Sans&quot;, Roboto, Oxygen, Ubuntu, &quot;Droid Sans&quot;, Arial, sans-serif" font-weight="400" font-size="16" text-anchor="start"></g><g id="SVGRepo_tracerCarrier" fill="none" stroke-width="1" stroke-linecap="round" stroke-linejoin="round" font-family="Inter, apple-system, BlinkMacSystemFont, &quot;Helvetica Neue&quot;, &quot;Segoe UI&quot;, &quot;Fira Sans&quot;, Roboto, Oxygen, Ubuntu, &quot;Droid Sans&quot;, Arial, sans-serif" font-weight="400" font-size="16" text-anchor="start"></g><g id="SVGRepo_iconCarrier" fill="#ff0000" stroke-width="1" stroke-linecap="butt" stroke-linejoin="miter"><path d="M20.17,3.91c-0.0638,-0.12288 -0.1599,-0.22601 -0.2779,-0.29827c-0.1181,-0.07226 -0.2537,-0.11089 -0.3921,-0.11173h-15c-0.13843,0.00084 -0.274,0.03947 -0.39208,0.11173c-0.11808,0.07226 -0.21417,0.17539 -0.27792,0.29827c-0.06364,0.12323 -0.09085,0.26204 -0.07845,0.40018c0.0124,0.13814 0.06389,0.26989 0.14845,0.37982l5.35,7.31v7.75c0.00259,0.1981 0.08244,0.3874 0.22253,0.5275c0.1401,0.1401 0.32936,0.2199 0.52747,0.2225h4c0.1981,-0.0026 0.3874,-0.0824 0.5275,-0.2225c0.1401,-0.1401 0.2199,-0.3294 0.2225,-0.5275v-7.75l5.35,-7.31c0.0846,-0.10993 0.136,-0.24168 0.1484,-0.37982c0.0124,-0.13814 -0.0148,-0.27695 -0.0784,-0.40018z"></path></g></g></g></svg>